<?xml version="1.0" encoding="UTF-8" standalone="no"?>
<!-- Generator: Adobe Illustrator 16.0.0, SVG Export Plug-In . SVG Version: 6.00 Build 0)  -->

<svg
   xmlns:dc="http://purl.org/dc/elements/1.1/"
   xmlns:cc="http://creativecommons.org/ns#"
   xmlns:rdf="http://www.w3.org/1999/02/22-rdf-syntax-ns#"
   xmlns:svg="http://www.w3.org/2000/svg"
   xmlns="http://www.w3.org/2000/svg"
   xmlns:sodipodi="http://sodipodi.sourceforge.net/DTD/sodipodi-0.dtd"
   xmlns:inkscape="http://www.inkscape.org/namespaces/inkscape"
   version="1.1"
   id="Capa_1"
   x="0px"
   y="0px"
   width="32px"
   height="32px"
   viewBox="0 0 32 32"
   style="enable-background:new 0 0 32 32;"
   xml:space="preserve"
   inkscape:version="0.91 r13725"
   sodipodi:docname="CrawleyWeb Branding v2.svg"><metadata
     id="metadata3947"><rdf:RDF><cc:Work
         rdf:about=""><dc:format>image/svg+xml</dc:format><dc:type
           rdf:resource="http://purl.org/dc/dcmitype/StillImage" /><dc:title></dc:title></cc:Work></rdf:RDF></metadata><defs
     id="defs3945" /><sodipodi:namedview
     pagecolor="#ffffff"
     bordercolor="#666666"
     borderopacity="1"
     objecttolerance="10"
     gridtolerance="10"
     guidetolerance="10"
     inkscape:pageopacity="0"
     inkscape:pageshadow="2"
     inkscape:window-width="1333"
     inkscape:window-height="825"
     id="namedview3943"
     showgrid="false"
     showguides="false"
     inkscape:guide-bbox="true"
     inkscape:zoom="1"
     inkscape:cx="-10.474807"
     inkscape:cy="18.145855"
     inkscape:window-x="0"
     inkscape:window-y="0"
     inkscape:window-maximized="0"
     inkscape:current-layer="Capa_1"><sodipodi:guide
       position="-50,-66"
       orientation="0,1"
       id="guide4010" /></sodipodi:namedview><g
     id="g3906"
     transform="matrix(4.0833333,0,0,4.0833333,21,44.20904)"
     style="fill:#8d8d92;fill-opacity:1"
     inkscape:export-xdpi="329.85001"
     inkscape:export-ydpi="329.85001"><g
       id="Laptop"
       style="fill:#8d8d92;fill-opacity:1"><g
         id="g3909"
         style="fill:#8d8d92;fill-opacity:1"><path
           d="M 29,4 3,4 C 1.346,4 0,5.346 0,7 l 0,13 c 0,1.654 1.346,3 3,3 l 26,0 c 1.654,0 3,-1.346 3,-3 L 32,7 C 32,5.346 30.654,4 29,4 Z m 1,16 c 0,0.551 -0.448,1 -1,1 L 3,21 C 2.448,21 2,20.551 2,20 L 2,7 C 2,6.449 2.448,6 3,6 l 26,0 c 0.552,0 1,0.449 1,1 l 0,13 z m 0.5,5 -10.5,0 c 0,0.552 -0.447,1 -1,1 l -6,0 c -0.553,0 -1,-0.448 -1,-1 L 1.5,25 C 0.672,25 0,25.672 0,26.5 0,27.328 0.672,28 1.5,28 l 29,0 C 31.328,28 32,27.328 32,26.5 32,25.672 31.328,25 30.5,25 Z"
           id="path3911"
           inkscape:connector-curvature="0"
           style="fill:#8d8d92;fill-opacity:1" /></g></g></g><g
     id="g3913" /><g
     id="g3915" /><g
     id="g3917" /><g
     id="g3919" /><g
     id="g3921" /><g
     id="g3923" /><g
     id="g3925" /><g
     id="g3927" /><g
     id="g3929" /><g
     id="g3931" /><g
     id="g3933" /><g
     id="g3935" /><g
     id="g3937" /><g
     id="g3939" /><g
     id="g3941" /><text
     xml:space="preserve"
     style="font-style:normal;font-weight:normal;font-size:40px;line-height:125%;font-family:sans-serif;letter-spacing:0px;word-spacing:0px;fill:#000000;fill-opacity:1;stroke:none;stroke-width:1px;stroke-linecap:butt;stroke-linejoin:miter;stroke-opacity:1"
     x="36.728813"
     y="123"
     id="text4002"
     sodipodi:linespacing="125%"
     inkscape:export-xdpi="329.85001"
     inkscape:export-ydpi="329.85001"><tspan
       sodipodi:role="line"
       id="tspan4004"
       x="36.728813"
       y="123"
       style="font-style:normal;font-variant:normal;font-weight:normal;font-stretch:condensed;font-size:70px;line-height:125%;font-family:'PT Sans Narrow';-inkscape-font-specification:'PT Sans Narrow, Condensed';text-align:start;writing-mode:lr-tb;text-anchor:start;fill:#c05746;fill-opacity:1">web</tspan></text>
<text
     xml:space="preserve"
     style="font-style:normal;font-weight:normal;font-size:40px;line-height:125%;font-family:sans-serif;letter-spacing:0px;word-spacing:0px;fill:#000000;fill-opacity:1;stroke:none;stroke-width:1px;stroke-linecap:butt;stroke-linejoin:miter;stroke-opacity:1"
     x="-177.5"
     y="124"
     id="text4006"
     sodipodi:linespacing="125%"
     inkscape:export-xdpi="329.85001"
     inkscape:export-ydpi="329.85001"><tspan
       sodipodi:role="line"
       id="tspan4008"
       x="-177.5"
       y="124"
       style="font-style:normal;font-variant:normal;font-weight:bold;font-stretch:condensed;font-size:70px;line-height:125%;font-family:'PT Sans Narrow';-inkscape-font-specification:'PT Sans Narrow, Bold Condensed';text-align:start;writing-mode:lr-tb;text-anchor:start;fill:#4a4063;fill-opacity:1">crawley</tspan></text>
</svg>