<?xml version="1.0" encoding="UTF-8" standalone="no"?>
<!-- Generator: Adobe Illustrator 16.0.0, SVG Export Plug-In . SVG Version: 6.00 Build 0)  -->

<svg
   xmlns:dc="http://purl.org/dc/elements/1.1/"
   xmlns:cc="http://creativecommons.org/ns#"
   xmlns:rdf="http://www.w3.org/1999/02/22-rdf-syntax-ns#"
   xmlns:svg="http://www.w3.org/2000/svg"
   xmlns="http://www.w3.org/2000/svg"
   xmlns:sodipodi="http://sodipodi.sourceforge.net/DTD/sodipodi-0.dtd"
   xmlns:inkscape="http://www.inkscape.org/namespaces/inkscape"
   version="1.1"
   id="Capa_1"
   x="0px"
   y="0px"
   width="32px"
   height="32px"
   viewBox="0 0 32 32"
   style="enable-background:new 0 0 32 32;"
   xml:space="preserve"
   inkscape:version="0.91 r13725"
   sodipodi:docname="wide6.svg"><metadata
     id="metadata4465"><rdf:RDF><cc:Work
         rdf:about=""><dc:format>image/svg+xml</dc:format><dc:type
           rdf:resource="http://purl.org/dc/dcmitype/StillImage" /></cc:Work></rdf:RDF></metadata><defs
     id="defs4463" /><sodipodi:namedview
     pagecolor="#ffffff"
     bordercolor="#666666"
     borderopacity="1"
     objecttolerance="10"
     gridtolerance="10"
     guidetolerance="10"
     inkscape:pageopacity="0"
     inkscape:pageshadow="2"
     inkscape:window-width="1440"
     inkscape:window-height="851"
     id="namedview4461"
     showgrid="false"
     inkscape:zoom="1.4142136"
     inkscape:cx="238.70431"
     inkscape:cy="-60.289195"
     inkscape:window-x="0"
     inkscape:window-y="23"
     inkscape:window-maximized="1"
     inkscape:current-layer="Capa_1" /><path
     inkscape:connector-curvature="0"
     id="path4429"
     d="m 144.75918,-8.271187 -78.422315,0 c -4.988866,0 -9.048729,4.0598631 -9.048729,9.048729 l 0,39.211159 c 0,4.988866 4.059863,9.048729 9.048729,9.048729 l 78.422315,0 c 4.98887,0 9.04873,-4.059863 9.04873,-9.048729 l 0,-39.211159 c 0,-4.9888659 -4.05986,-9.048729 -9.04873,-9.048729 z m 3.01625,48.259888 c 0,1.66195 -1.35128,3.016243 -3.01625,3.016243 l -78.422315,0 c -1.664966,0 -3.016243,-1.354293 -3.016243,-3.016243 l 0,-39.211159 c 0,-1.66194989 1.351277,-3.016243 3.016243,-3.016243 l 78.422315,0 c 1.66497,0 3.01625,1.35429311 3.01625,3.016243 l 0,39.211159 z m 1.50812,15.081215 -31.67055,0 c 0,1.664966 -1.34826,3.016243 -3.01625,3.016243 l -18.097455,0 c -1.667982,0 -3.016243,-1.351277 -3.016243,-3.016243 l -31.670552,0 c -2.497449,0 -4.524364,2.026915 -4.524364,4.524364 0,2.49745 2.026915,4.524365 4.524364,4.524365 l 87.47105,0 c 2.49745,0 4.52436,-2.026915 4.52436,-4.524365 0,-2.497449 -2.02691,-4.524364 -4.52436,-4.524364 z"
     style="fill:#8d8d92;fill-opacity:1"
     inkscape:export-filename="/Users/crawleym/Desktop/test"
     inkscape:export-xdpi="90"
     inkscape:export-ydpi="90" /><g
     id="g4431"
     transform="matrix(2.4745763,0,0,2.4745763,37.288136,-14.169492)"
     style="" /><g
     id="g4433"
     transform="matrix(2.4745763,0,0,2.4745763,37.288136,-14.169492)"
     style="" /><g
     id="g4435"
     transform="matrix(2.4745763,0,0,2.4745763,37.288136,-14.169492)"
     style="" /><g
     id="g4437"
     transform="matrix(2.4745763,0,0,2.4745763,37.288136,-14.169492)"
     style="" /><g
     id="g4439"
     transform="matrix(2.4745763,0,0,2.4745763,37.288136,-14.169492)"
     style="" /><g
     id="g4441"
     transform="matrix(2.4745763,0,0,2.4745763,37.288136,-14.169492)"
     style="" /><g
     id="g4443"
     transform="matrix(2.4745763,0,0,2.4745763,37.288136,-14.169492)"
     style="" /><g
     id="g4445"
     transform="matrix(2.4745763,0,0,2.4745763,37.288136,-14.169492)"
     style="" /><g
     id="g4447"
     transform="matrix(2.4745763,0,0,2.4745763,37.288136,-14.169492)"
     style="" /><g
     id="g4449"
     transform="matrix(2.4745763,0,0,2.4745763,37.288136,-14.169492)"
     style="" /><g
     id="g4451"
     transform="matrix(2.4745763,0,0,2.4745763,37.288136,-14.169492)"
     style="" /><g
     id="g4453"
     transform="matrix(2.4745763,0,0,2.4745763,37.288136,-14.169492)"
     style="" /><g
     id="g4455"
     transform="matrix(2.4745763,0,0,2.4745763,37.288136,-14.169492)"
     style="" /><g
     id="g4457"
     transform="matrix(2.4745763,0,0,2.4745763,37.288136,-14.169492)"
     style="" /><g
     id="g4459"
     transform="matrix(2.4745763,0,0,2.4745763,37.288136,-14.169492)"
     style="" /><text
     xml:space="preserve"
     style="font-style:normal;font-weight:normal;font-size:40px;line-height:125%;font-family:sans-serif;letter-spacing:0px;word-spacing:0px;fill:#c05746;fill-opacity:1;stroke:none;stroke-width:1px;stroke-linecap:butt;stroke-linejoin:miter;stroke-opacity:1;"
     x="68.033905"
     y="25.152542"
     id="text4505"
     sodipodi:linespacing="125%"
     inkscape:export-filename="/Users/crawleym/Desktop/test"
     inkscape:export-xdpi="90"
     inkscape:export-ydpi="90"><tspan
       sodipodi:role="line"
       id="tspan4507"
       x="68.033905"
       y="25.152542"
       style="font-style:normal;font-variant:normal;font-weight:normal;font-stretch:condensed;font-size:17.5px;font-family:'PT Sans Narrow';-inkscape-font-specification:'PT Sans Narrow Condensed';fill:#c05746;fill-opacity:1;">crawley<tspan
   style="font-style:normal;font-variant:normal;font-weight:bold;font-stretch:condensed;font-size:17.5px;font-family:'PT Sans Narrow';-inkscape-font-specification:'PT Sans Narrow Bold Condensed';fill:#c05746;fill-opacity:1;"
   id="tspan4509">:web</tspan></tspan></text>
<path
     inkscape:export-ydpi="90"
     inkscape:export-xdpi="90"
     inkscape:export-filename="/Users/crawleym/Desktop/test"
     style="fill:#8d8d92;fill-opacity:1"
     d="m 148.29471,123.25067 -78.422311,0 c -4.988866,0 -9.048729,4.05987 -9.048729,9.04873 l 0,39.21116 c 0,4.98887 4.059863,9.04873 9.048729,9.04873 l 78.422311,0 c 4.98887,0 9.04873,-4.05986 9.04873,-9.04873 l 0,-39.21116 c 0,-4.98886 -4.05986,-9.04873 -9.04873,-9.04873 z m 3.01625,48.25989 c 0,1.66195 -1.35128,3.01625 -3.01625,3.01625 l -78.422311,0 c -1.664966,0 -3.016243,-1.3543 -3.016243,-3.01625 l 0,-39.21116 c 0,-1.66195 1.351277,-3.01624 3.016243,-3.01624 l 78.422311,0 c 1.66497,0 3.01625,1.35429 3.01625,3.01624 l 0,39.21116 z m 1.50812,15.08122 -31.67055,0 c 0,1.66496 -1.34826,3.01624 -3.01625,3.01624 l -18.09745,0 c -1.667986,0 -3.016246,-1.35128 -3.016246,-3.01624 l -31.67055,0 c -2.497449,0 -4.524364,2.02691 -4.524364,4.52436 0,2.49745 2.026915,4.52437 4.524364,4.52437 l 87.471046,0 c 2.49745,0 4.52436,-2.02692 4.52436,-4.52437 0,-2.49745 -2.02691,-4.52436 -4.52436,-4.52436 z"
     id="path5076"
     inkscape:connector-curvature="0" /><text
     inkscape:export-ydpi="90"
     inkscape:export-xdpi="90"
     inkscape:export-filename="/Users/crawleym/Desktop/test"
     sodipodi:linespacing="125%"
     id="text5078"
     y="161.84598"
     x="83.690758"
     style="font-style:normal;font-weight:normal;font-size:40px;line-height:125%;font-family:sans-serif;letter-spacing:0px;word-spacing:0px;fill:#c05746;fill-opacity:1;stroke:none;stroke-width:1px;stroke-linecap:butt;stroke-linejoin:miter;stroke-opacity:1"
     xml:space="preserve"><tspan
       style="font-style:normal;font-variant:normal;font-weight:normal;font-stretch:condensed;font-size:40px;font-family:'PT Sans Narrow';-inkscape-font-specification:'PT Sans Narrow Condensed';fill:#c05746;fill-opacity:1"
       y="161.84598"
       x="83.690758"
       id="tspan5080"
       sodipodi:role="line">c<tspan
   id="tspan5082"
   style="font-style:normal;font-variant:normal;font-weight:bold;font-stretch:condensed;font-size:40px;font-family:'PT Sans Narrow';-inkscape-font-specification:'PT Sans Narrow Bold Condensed';fill:#c05746;fill-opacity:1">:w</tspan></tspan></text>
</svg>