<?xml version="1.0" encoding="iso-8859-1"?>
<!-- Generator: Adobe Illustrator 16.0.0, SVG Export Plug-In . SVG Version: 6.00 Build 0)  -->
<!DOCTYPE svg PUBLIC "-//W3C//DTD SVG 1.1//EN" "http://www.w3.org/Graphics/SVG/1.1/DTD/svg11.dtd">
<svg version="1.1" id="Capa_1" xmlns="http://www.w3.org/2000/svg" xmlns:xlink="http://www.w3.org/1999/xlink" x="0px" y="0px"
	 width="32px" height="32px" viewBox="0 0 32 32" style="enable-background:new 0 0 32 32;" xml:space="preserve">
<g>
	<g id="Laptop">
		<g>
			<path d="M29,4H3C1.346,4,0,5.346,0,7v13c0,1.654,1.346,3,3,3h26c1.654,0,3-1.346,3-3V7C32,5.346,30.654,4,29,4z M30,20
				c0,0.551-0.448,1-1,1H3c-0.552,0-1-0.449-1-1V7c0-0.551,0.448-1,1-1h26c0.552,0,1,0.449,1,1V20z M30.5,25H20c0,0.552-0.447,1-1,1
				h-6c-0.553,0-1-0.448-1-1H1.5C0.672,25,0,25.672,0,26.5S0.672,28,1.5,28h29c0.828,0,1.5-0.672,1.5-1.5S31.328,25,30.5,25z"/>
		</g>
	</g>
</g>
<g>
</g>
<g>
</g>
<g>
</g>
<g>
</g>
<g>
</g>
<g>
</g>
<g>
</g>
<g>
</g>
<g>
</g>
<g>
</g>
<g>
</g>
<g>
</g>
<g>
</g>
<g>
</g>
<g>
</g>
</svg>
